<svg
  width="150"
  height="150"
  viewBox="0 0 150 150"
  fill="none"
  xmlns="http://www.w3.org/2000/svg"
  class="w-20 h-20"
>
  <rect width="150" height="150" rx="7" fill="#2B6CB0" />
  <path
    fill-rule="evenodd"
    clip-rule="evenodd"
    d="M82.7416 10L118.592 27.0225L111.729 72.956C111.9 73.0602 112.048 73.2069 112.156 73.3916C116.602 80.9972 121.054 92.6145 119.54 102.521C118.774 107.536 116.471 112.14 111.868 115.493C107.296 118.824 100.586 120.824 91.1722 120.934C72.7909 121.147 59.5907 124.39 50.5797 128.31C41.5295 132.248 36.7883 136.829 35.1765 139.644C34.8334 140.243 34.0697 140.45 33.4706 140.107C32.8715 139.764 32.664 139 33.0071 138.401C34.9843 134.949 40.2566 130.075 49.5823 126.018C58.9472 121.943 72.4854 118.65 91.1432 118.434C100.249 118.328 106.387 116.393 110.396 113.473C114.375 110.574 116.386 106.611 117.069 102.144C118.453 93.0875 114.345 82.0891 109.998 74.6534C109.911 74.5056 109.859 74.3474 109.838 74.1878L71.0152 47.9142L82.7416 10ZM67.0152 48.9142L69.1688 41.951C65.1576 40.5299 60.8315 39.8194 56.1904 39.8194H31V118.023H56.7275C63.4951 117.987 69.6182 116.375 75.0967 113.189C80.611 109.966 84.8721 105.526 87.8799 99.8682C90.9235 94.1749 92.4453 87.7474 92.4453 80.586V76.9874C92.4238 72.7219 91.8449 68.7092 90.7087 64.9492L67.0152 48.9142ZM49.8525 54.375V103.521H56.4053C61.8122 103.521 65.9658 101.605 68.8662 97.7735C71.7666 93.9063 73.2168 88.1771 73.2168 80.586V77.2022C73.2168 69.6469 71.7666 63.9535 68.8662 60.1221C65.9658 56.2907 61.7406 54.375 56.1904 54.375H49.8525Z"
    fill="white"
  ></path>
</svg>
