<svg id="Layer_1" data-name="Layer 1" xmlns="http://www.w3.org/2000/svg" viewBox="0 0 750 332.72"><defs><style>.cls-1{fill:#2a4365;}</style></defs><path class="cls-1" d="M134,320.49a68.13,68.13,0,0,0-21.7-15.62,65.09,65.09,0,0,0-27.52-5.81H24.16V444.34H84.81A66,66,0,0,0,134,423a72.31,72.31,0,0,0,14.16-23.07,80.63,80.63,0,0,0,0-56.39A71,71,0,0,0,134,320.49Zm-13,69.28a51.26,51.26,0,0,1-10.17,15.8,48.16,48.16,0,0,1-15.25,10.81,45.06,45.06,0,0,1-18.8,4H52.3V321.21H76.82a42.45,42.45,0,0,1,18.89,4.27,51,51,0,0,1,15.16,11.26,53.59,53.59,0,0,1,10.17,16A47.4,47.4,0,0,1,124.77,371,48.69,48.69,0,0,1,121,389.77Z" transform="translate(-24.16 -134.85)"/><path class="cls-1" d="M263.51,349.82a57.09,57.09,0,0,0-39.77-15.89,55.35,55.35,0,0,0-21.61,4.26A56,56,0,0,0,184.33,350a56.69,56.69,0,0,0-12.07,17.61,52.67,52.67,0,0,0-4.45,21.53,54.36,54.36,0,0,0,16.34,39.22A56.58,56.58,0,0,0,202,440.08a55.81,55.81,0,0,0,21.79,4.26,57.09,57.09,0,0,0,39.77-15.89,53.29,53.29,0,0,0,12-17.43,56.88,56.88,0,0,0,0-43.68A53,53,0,0,0,263.51,349.82Zm-12.16,51.85a32.77,32.77,0,0,1-6.43,10.17,29.59,29.59,0,0,1-9.5,6.81,28.64,28.64,0,0,1-23.18,0,29.59,29.59,0,0,1-9.5-6.81,32.94,32.94,0,0,1-8.78-22.7,33.11,33.11,0,0,1,2.35-12.54,32.77,32.77,0,0,1,6.43-10.17,29.59,29.59,0,0,1,9.5-6.81,28.64,28.64,0,0,1,23.18,0,29.59,29.59,0,0,1,9.5,6.81,32.77,32.77,0,0,1,6.43,10.17,34.47,34.47,0,0,1,0,25.07Z" transform="translate(-24.16 -134.85)"/><path class="cls-1" d="M362.49,417.38a27.54,27.54,0,0,1-14.17,3.72,26.54,26.54,0,0,1-11.44-2.56,30.34,30.34,0,0,1-9.44-6.85,32.57,32.57,0,0,1-6.36-10.13,33.86,33.86,0,0,1,0-24.84,31.63,31.63,0,0,1,15.89-17,26.1,26.1,0,0,1,11.35-2.56,26.47,26.47,0,0,1,13.9,3.45,34.34,34.34,0,0,1,9.71,8.72l17.62-17.93a50.27,50.27,0,0,0-18.8-13.16A60.8,60.8,0,0,0,348,333.93a55.73,55.73,0,0,0-21.78,4.26,53.76,53.76,0,0,0-17.56,11.72,55.71,55.71,0,0,0-11.72,17.52,54.37,54.37,0,0,0-4.33,21.71,55.42,55.42,0,0,0,4.33,22,53.65,53.65,0,0,0,11.81,17.52,54.33,54.33,0,0,0,17.65,11.54,56.3,56.3,0,0,0,21.6,4.17,60.94,60.94,0,0,0,23.61-4.68A52.18,52.18,0,0,0,390.82,426l-18.16-18.12A30.18,30.18,0,0,1,362.49,417.38Z" transform="translate(-24.16 -134.85)"/><polygon class="cls-1" points="406.25 262.46 448.39 309.5 479.44 309.5 430.41 255.56 478.13 199.08 447.62 199.08 406.25 249.02 406.25 164.21 379.56 164.21 379.56 309.5 406.25 309.5 406.25 262.46"/><rect class="cls-1" x="491.55" y="164.21" width="27.24" height="27.24"/><rect class="cls-1" x="491.91" y="199.08" width="26.51" height="110.42"/><path class="cls-1" d="M572.18,406a74.55,74.55,0,0,0,1.73,17.07,29.69,29.69,0,0,0,5.54,12,22.35,22.35,0,0,0,10.17,7,46.57,46.57,0,0,0,15.62,2.27,44.59,44.59,0,0,0,10.53-1.27,30.3,30.3,0,0,0,9.26-3.81V416.2a18.59,18.59,0,0,1-7.44,3.77,30.66,30.66,0,0,1-7.45,1.13,17.22,17.22,0,0,1-4.45-.55,8.88,8.88,0,0,1-3.72-2,10.32,10.32,0,0,1-2.64-4,18.34,18.34,0,0,1-1-6.56V357.54h26.51V333.93H598.34V299.06h-7.63c-1.46,10.29-5.09,23.36-10.9,30.87a61.66,61.66,0,0,1-21.43,17.62v10h13.8Z" transform="translate(-24.16 -134.85)"/><path class="cls-1" d="M748.62,394.22c.18-1.82.27-3.57.27-5.27A53.11,53.11,0,0,0,732,349.36,58,58,0,0,0,714,338a56.57,56.57,0,0,0-21.25-4.08A54.64,54.64,0,0,0,671,338.29a57.84,57.84,0,0,0-17.8,11.8,54.69,54.69,0,0,0-12,17.52,55.43,55.43,0,0,0,0,43.05,55,55,0,0,0,11.9,17.52A56.41,56.41,0,0,0,693,444.34,71.66,71.66,0,0,0,715,441a73.3,73.3,0,0,0,21.34-11.53l-16.53-16.52a34.72,34.72,0,0,1-11.8,6.62A43,43,0,0,1,693.86,422a31.21,31.21,0,0,1-10.62-1.73,30.41,30.41,0,0,1-8.63-4.72,29,29,0,0,1-6.45-7.08,36.21,36.21,0,0,1-4.08-8.63H748C748.22,397.91,748.43,396,748.62,394.22Zm-84.54-15.44A31.69,31.69,0,0,1,675,362.71a28,28,0,0,1,17.62-6.08,28.6,28.6,0,0,1,17.89,6.08,31.54,31.54,0,0,1,11,16.07Z" transform="translate(-24.16 -134.85)"/><path class="cls-1" d="M774.12,392.28a115.36,115.36,0,0,0-3.41-24,177.17,177.17,0,0,0-16.2-40.85,247.28,247.28,0,0,0-20-31.15c-5-6.72-9.93-12.54-14.41-17.47L714,284.93c4.3,4.62,9,10.09,13.89,16.4a238.08,238.08,0,0,1,19.75,29.85,169.59,169.59,0,0,1,16.08,38.87,109.17,109.17,0,0,1,3.53,22.47,77.22,77.22,0,0,1-2.44,23.34c-4.13,15.27-14,30.12-28.76,38-7.33,4-15.68,6.27-24.22,7.51a119.33,119.33,0,0,1-13,1.14c-4.37.18-8.77.17-13.17,0-17.63-.57-35.28-2.86-52.65-5s-34.51-4.45-51.14-6.1-32.78-2.74-48.11-3.15-29.82-.11-43.17.69-25.55,2.16-36.29,3.73-20.05,3.34-27.67,5-13.56,3.12-17.59,4.18l-6.19,1.65,6.21-1.54c4.06-1,10-2.36,17.65-3.89s17-3.11,27.71-4.49,22.93-2.49,36.24-3.1,27.77-.62,43,0,31.3,2,47.85,4,33.59,4.43,50.94,6.95,35,5.07,53,6c4.49.22,9,.31,13.52.2a125.55,125.55,0,0,0,13.54-.95c9-1.16,18-3.4,26.18-7.69a60.53,60.53,0,0,0,20.65-17.6,72.23,72.23,0,0,0,11.73-23.67A83.84,83.84,0,0,0,774.12,392.28Z" transform="translate(-24.16 -134.85)"/><path class="cls-1" d="M629.3,192.21l86.4,86.41,2-2-12.45-38.56-18.09-56-14.6-45.16a289.28,289.28,0,0,1-42.32,54.36Z" transform="translate(-24.16 -134.85)"/><path class="cls-1" d="M627.46,190.25a287.45,287.45,0,0,0,43.22-55.4H669l-18.56.12-18.56.11-18.57.12-18.56.12-22.2.14,54.85,54.84Z" transform="translate(-24.16 -134.85)"/><path class="cls-1" d="M627.71,193.78a290.49,290.49,0,0,1-56.1,43.11l45.71,14.87L673.26,270l38.55,12.55,2.32-2.32Z" transform="translate(-24.16 -134.85)"/><path class="cls-1" d="M571,137l-.19,22.21-.16,18.56-.16,18.56-.15,18.57-.16,18.56v1.13a287.31,287.31,0,0,0,55.66-42.76Z" transform="translate(-24.16 -134.85)"/></svg>